<?xml version="1.0" standalone="no"?>
<!DOCTYPE svg PUBLIC "-//W3C//DTD SVG 20010904//EN"
 "http://www.w3.org/TR/2001/REC-SVG-20010904/DTD/svg10.dtd">
<svg version="1.0" xmlns="http://www.w3.org/2000/svg"
 width="1280.000000pt" height="1280.000000pt" viewBox="0 0 1280.000000 1280.000000"
 preserveAspectRatio="xMidYMid meet">
<metadata>
Created by potrace 1.16, written by Peter Selinger 2001-2019
</metadata>
<g transform="translate(0.000000,1280.000000) scale(0.100000,-0.100000)"
fill="#000000" stroke="none">
<path d="M7135 8853 c-25 -24 -16 -77 45 -273 38 -121 51 -176 47 -205 -2 -22
-39 -169 -82 -328 -53 -193 -76 -290 -69 -297 11 -11 477 -15 494 -5 10 6 8
17 -97 355 -154 501 -233 734 -255 753 -26 22 -62 22 -83 0z"/>
<path d="M5567 8792 c-32 -35 -172 -451 -451 -1332 -153 -488 -142 -444 -122
-475 20 -30 67 -34 94 -7 10 10 39 82 66 161 27 78 52 139 57 134 4 -4 27 -78
51 -163 l44 -155 304 -2 c168 -2 311 1 317 5 10 6 -3 65 -51 237 -209 748
-316 1145 -316 1166 0 13 20 89 45 169 57 179 65 233 40 260 -23 25 -57 26
-78 2z"/>
<path d="M6932 7279 c-176 -647 -276 -999 -282 -999 -4 0 -45 132 -90 293 -92
329 -158 547 -166 547 -12 0 -39 -87 -128 -403 -122 -432 -127 -449 -131 -445
-2 2 -31 99 -63 216 -33 117 -62 216 -65 219 -4 3 -149 8 -323 11 -269 4 -317
3 -312 -9 3 -8 83 -295 178 -639 95 -344 176 -629 181 -634 5 -6 17 -2 29 9
11 10 142 204 292 431 l273 414 75 0 75 0 250 -385 c267 -412 310 -475 324
-475 9 0 23 49 320 1120 104 377 194 696 199 709 7 20 15 4 51 -105 71 -213
94 -244 158 -215 25 11 25 15 19 69 -5 52 -116 435 -129 449 -3 3 -158 8 -344
10 l-338 6 -53 -194z"/>
<path d="M6367 6008 c-49 -65 -557 -859 -557 -871 -1 -22 324 -1187 331 -1187
4 0 9 10 11 23 9 41 228 852 236 870 4 11 44 -124 111 -375 127 -476 140 -523
150 -512 5 5 29 88 55 184 26 96 99 361 162 589 l115 414 -41 66 c-122 200
-527 825 -537 828 -6 2 -22 -11 -36 -29z"/>
</g>
</svg>
