<?xml version="1.0" standalone="no"?>
<!DOCTYPE svg PUBLIC "-//W3C//DTD SVG 20010904//EN"
 "http://www.w3.org/TR/2001/REC-SVG-20010904/DTD/svg10.dtd">
<svg version="1.0" xmlns="http://www.w3.org/2000/svg"
 width="512.000000pt" height="512.000000pt" viewBox="0 0 512.000000 512.000000"
 preserveAspectRatio="xMidYMid meet">

<g transform="translate(0.000000,512.000000) scale(0.100000,-0.100000)"
fill="#000000" stroke="none">
<path d="M521 5109 c-211 -41 -383 -175 -466 -363 -48 -110 -55 -177 -55 -563
0 -330 1 -361 19 -393 52 -99 188 -109 253 -18 23 33 23 34 28 423 l5 390 27
50 c32 60 97 124 158 156 44 24 50 24 435 29 389 5 390 5 423 28 91 65 81 201
-18 253 -32 18 -62 19 -400 18 -201 -1 -385 -5 -409 -10z"/>
<path d="M3790 5103 c-50 -26 -80 -76 -80 -133 0 -57 30 -107 80 -132 31 -16
72 -18 397 -18 428 0 437 -2 534 -99 97 -97 99 -106 99 -534 0 -325 2 -366 18
-397 53 -107 206 -107 264 0 18 33 19 58 16 430 l-4 395 -26 73 c-36 101 -82
173 -154 246 -73 72 -145 117 -246 154 l-73 27 -395 3 c-363 3 -398 1 -430
-15z"/>
<path d="M1771 2665 c-133 -454 -245 -834 -248 -845 -5 -20 -2 -21 112 -18
l117 3 229 775 c126 426 238 805 248 843 l19 67 -116 0 -117 0 -244 -825z"/>
<path d="M785 2881 l-550 -257 0 -103 0 -104 530 -246 c292 -135 542 -252 558
-258 l27 -13 0 123 0 123 -420 184 c-232 101 -422 186 -424 189 -2 3 145 71
328 150 182 80 373 164 424 187 l92 43 0 120 c0 67 -3 121 -7 120 -5 0 -255
-117 -558 -258z"/>
<path d="M3780 3016 l0 -124 432 -185 432 -185 -34 -16 c-19 -9 -213 -93 -430
-186 l-395 -169 -3 -120 c-1 -67 1 -121 6 -121 4 0 253 112 552 250 l545 249
0 112 0 111 -500 229 c-275 126 -524 240 -552 254 l-53 24 0 -123z"/>
<path d="M2721 3044 c-187 -50 -332 -215 -375 -426 -71 -345 90 -664 365 -727
136 -32 291 10 385 105 25 24 47 44 49 44 3 0 5 -135 5 -300 l0 -300 175 0
175 0 0 763 c0 419 3 779 6 800 l7 37 -177 0 -176 0 0 -65 c0 -36 -3 -65 -7
-65 -5 0 -20 16 -36 35 -76 95 -250 139 -396 99z m295 -275 c41 -15 93 -70
111 -117 14 -37 18 -75 18 -187 0 -124 -3 -145 -22 -181 -46 -87 -126 -131
-221 -121 -141 15 -222 146 -209 343 9 153 79 251 197 275 36 7 89 2 126 -12z"/>
<path d="M70 1388 c-69 -48 -70 -52 -70 -451 0 -402 7 -460 65 -582 84 -174
247 -300 437 -339 62 -13 149 -16 435 -16 330 0 361 1 393 19 99 52 109 188
18 253 -33 23 -34 23 -423 28 l-390 5 -50 27 c-60 32 -124 97 -156 158 -24 44
-24 50 -29 435 -5 389 -5 390 -28 423 -47 65 -139 83 -202 40z"/>
<path d="M4889 1387 c-68 -45 -69 -50 -69 -454 0 -428 -2 -437 -99 -534 -97
-97 -106 -99 -534 -99 -325 0 -366 -2 -397 -18 -107 -53 -107 -210 0 -265 32
-16 66 -17 430 -14 l395 3 73 26 c101 36 173 82 246 154 72 73 118 145 154
246 l26 73 3 395 c3 364 2 398 -14 430 -26 50 -76 80 -133 80 -32 0 -58 -7
-81 -23z"/>
</g>
</svg>
