<?xml version="1.0" standalone="no"?>
<!DOCTYPE svg PUBLIC "-//W3C//DTD SVG 20010904//EN"
 "http://www.w3.org/TR/2001/REC-SVG-20010904/DTD/svg10.dtd">
<svg version="1.0" xmlns="http://www.w3.org/2000/svg"
 width="512.000000pt" height="512.000000pt" viewBox="0 0 512.000000 512.000000"
 preserveAspectRatio="xMidYMid meet">
<metadata>
Created by potrace 1.16, written by Peter Selinger 2001-2019
</metadata>
<g transform="translate(0.000000,512.000000) scale(0.100000,-0.100000)"
fill="#000000" stroke="none">
<path d="M933 4017 c2 -7 152 -542 332 -1189 l327 -1177 -81 -213 c-44 -117
-92 -243 -106 -280 l-25 -68 188 0 187 0 59 166 c58 161 63 170 186 352 l127
187 448 0 449 0 111 -192 c79 -135 123 -224 150 -300 21 -59 47 -132 57 -160
l19 -53 185 0 c101 0 184 3 184 7 0 4 -43 121 -96 260 l-95 253 317 1187 c174
654 319 1198 322 1211 l4 22 -176 0 c-97 0 -176 -2 -176 -6 0 -4 -441 -1743
-471 -1859 -8 -27 -13 -35 -19 -25 -4 8 -139 365 -300 793 l-293 777 -191 -2
-190 -3 -111 -295 c-61 -162 -192 -508 -290 -769 -98 -261 -181 -468 -184
-460 -3 8 -116 426 -251 929 l-246 915 -178 3 c-143 2 -177 0 -173 -11z m1787
-1309 c78 -238 152 -467 166 -508 13 -41 24 -78 24 -83 0 -4 -153 -7 -341 -7
-269 0 -340 3 -336 13 2 6 78 238 168 515 90 276 166 502 171 502 4 0 71 -195
148 -432z"/>
</g>
</svg>
